<svg width="1073" height="194" viewBox="0 0 1073 194" fill="none" xmlns="http://www.w3.org/2000/svg">
<g clip-path="url(#clip0_453_62)">
<path fill-rule="evenodd" clip-rule="evenodd" d="M141.23 50.65L111.98 0L0 193.96L167.97 96.98L141.23 50.65Z" fill="#FF6B00"/>
<path fill-rule="evenodd" clip-rule="evenodd" d="M129.86 139.63L223.96 193.96L176.91 112.46L129.86 139.63Z" fill="#FF6B00"/>
<path d="M263.72 132.12L296.18 59.72C297.93 55.85 301.05 53.48 305.42 53.48H306.16C310.53 53.48 313.53 55.85 315.28 59.72L347.73 132.12C348.298 133.11 348.601 134.229 348.61 135.37C348.633 136.333 348.462 137.29 348.108 138.185C347.753 139.081 347.223 139.896 346.548 140.582C345.872 141.269 345.066 141.813 344.177 142.182C343.287 142.55 342.333 142.737 341.37 142.73C337.75 142.73 335.25 140.61 333.88 137.36L326.76 121H284.32L277 137.86C276.474 139.314 275.505 140.567 274.23 141.441C272.954 142.314 271.436 142.765 269.89 142.73C268.951 142.746 268.019 142.573 267.148 142.222C266.278 141.871 265.487 141.348 264.823 140.684C264.159 140.021 263.634 139.231 263.282 138.361C262.929 137.491 262.755 136.559 262.77 135.62C262.812 134.396 263.137 133.197 263.72 132.12ZM320.89 107.4L305.54 72.08L290.19 107.4H320.89Z" fill="#FF6B00"/>
<path d="M389.17 69H368C367.043 69.0359 366.089 68.8784 365.195 68.537C364.3 68.1956 363.483 67.6773 362.794 67.0131C362.104 66.3488 361.556 65.5523 361.181 64.6712C360.806 63.7901 360.613 62.8425 360.613 61.885C360.613 60.9275 360.806 59.9799 361.181 59.0988C361.556 58.2177 362.104 57.4212 362.794 56.757C363.483 56.0927 364.3 55.5744 365.195 55.233C366.089 54.8916 367.043 54.7341 368 54.77H426C427.841 54.839 429.583 55.6189 430.861 56.9456C432.139 58.2724 432.853 60.0429 432.853 61.885C432.853 63.7272 432.139 65.4976 430.861 66.8244C429.583 68.1512 427.841 68.931 426 69H404.65V135.16C404.65 137.213 403.835 139.181 402.383 140.633C400.932 142.085 398.963 142.9 396.91 142.9C394.857 142.9 392.889 142.085 391.437 140.633C389.986 139.181 389.17 137.213 389.17 135.16V69Z" fill="#FF6B00"/>
<path d="M461.07 61.7201C461.142 59.7325 461.982 57.8502 463.413 56.4695C464.845 55.0887 466.756 54.3171 468.745 54.3171C470.734 54.3171 472.645 55.0887 474.077 56.4695C475.508 57.8502 476.348 59.7325 476.42 61.7201V91.0501H518.12V61.7201C518.192 59.7325 519.032 57.8502 520.463 56.4695C521.895 55.0887 523.806 54.3171 525.795 54.3171C527.784 54.3171 529.695 55.0887 531.127 56.4695C532.558 57.8502 533.398 59.7325 533.47 61.7201V135.12C533.398 137.108 532.558 138.99 531.127 140.371C529.695 141.751 527.784 142.523 525.795 142.523C523.806 142.523 521.895 141.751 520.463 140.371C519.032 138.99 518.192 137.108 518.12 135.12V105.28H476.42V135.12C476.348 137.108 475.508 138.99 474.077 140.371C472.645 141.751 470.734 142.523 468.745 142.523C466.756 142.523 464.845 141.751 463.413 140.371C461.982 138.99 461.142 137.108 461.07 135.12V61.7201Z" fill="#FF6B00"/>
<path d="M564.55 98.67V98.42C564.55 73.82 583.55 53.23 610.36 53.23C637.17 53.23 655.92 73.58 655.92 98.17V98.42C655.92 123.01 636.92 143.61 610.11 143.61C583.3 143.61 564.55 123.26 564.55 98.67ZM639.82 98.67V98.42C639.82 81.42 627.46 67.33 610.11 67.33C592.76 67.33 580.65 81.19 580.65 98.17V98.42C580.65 115.42 593.01 129.42 610.36 129.42C627.71 129.42 639.82 115.64 639.82 98.67Z" fill="#FF6B00"/>
<path d="M684.13 132.37C682.884 131.486 681.953 130.228 681.474 128.777C680.994 127.327 680.991 125.761 681.464 124.309C681.938 122.857 682.864 121.594 684.106 120.706C685.349 119.817 686.843 119.349 688.37 119.37C689.979 119.304 691.562 119.787 692.86 120.74C700.1 126.48 707.86 129.74 717.33 129.74C726.8 129.74 732.81 125.25 732.81 118.74V118.49C732.81 112.25 729.31 108.88 713.09 105.14C694.49 100.64 684 95.14 684 79.05V78.8C684 63.8 696.48 53.46 713.84 53.46C723.689 53.2626 733.362 56.0934 741.55 61.57C742.603 62.2002 743.471 63.0989 744.063 64.1742C744.655 65.2495 744.951 66.4628 744.92 67.69C744.916 68.6336 744.725 69.567 744.359 70.4364C743.992 71.3058 743.456 72.0938 742.783 72.755C742.11 73.4161 741.312 73.9373 740.436 74.2883C739.56 74.6393 738.624 74.8132 737.68 74.8C736.267 74.8145 734.88 74.426 733.68 73.68C726.94 69.31 720.45 67.06 713.59 67.06C704.59 67.06 699.35 71.68 699.35 77.42V77.67C699.35 84.42 703.35 87.41 720.2 91.41C738.68 95.9 748.2 102.52 748.2 117V117.25C748.2 133.6 735.35 143.34 717 143.34C705.14 143.365 693.598 139.512 684.13 132.37Z" fill="#FF6B00"/>
<path d="M817.93 58C817.945 57.1438 818.293 56.3272 818.9 55.7226C819.506 55.118 820.324 54.7728 821.18 54.76H849.64C868.86 54.76 882.1 64.62 882.1 81.47V81.72C882.1 100.07 866.24 109.56 848.02 109.56H824.43V139.39C824.43 140.252 824.088 141.079 823.478 141.688C822.869 142.298 822.042 142.64 821.18 142.64C820.318 142.64 819.491 142.298 818.882 141.688C818.272 141.079 817.93 140.252 817.93 139.39V58ZM848.39 103.57C864.62 103.57 875.61 95.08 875.61 82.09V81.84C875.61 67.99 864.87 60.75 849.14 60.75H824.43V103.57H848.39Z" fill="#FF6B00"/>
<path d="M899.57 137.86L936.89 57C937.77 55.13 939.01 53.88 941.26 53.88H941.51C943.76 53.88 945.01 55.13 945.88 57L983.08 137.64C983.404 138.257 983.576 138.943 983.58 139.64C983.562 140.451 983.223 141.221 982.639 141.783C982.054 142.345 981.271 142.653 980.46 142.64C979.735 142.581 979.042 142.314 978.465 141.87C977.889 141.427 977.453 140.826 977.21 140.14L967 117.64H915.42L905.19 140.24C904.988 140.917 904.576 141.511 904.013 141.937C903.45 142.363 902.766 142.599 902.06 142.61C901.3 142.635 900.56 142.361 899.999 141.847C899.439 141.333 899.101 140.62 899.06 139.86C899.076 139.163 899.25 138.479 899.57 137.86ZM964.23 111.77L941.23 61.22L918.14 111.77H964.23Z" fill="#FF6B00"/>
<path d="M1030.89 107.53L996.81 59.47C996.429 58.8698 996.212 58.1802 996.18 57.47C996.226 56.6031 996.599 55.7859 997.225 55.1843C997.851 54.5826 998.682 54.2415 999.55 54.23C1000.17 54.2463 1000.78 54.4283 1001.3 54.757C1001.83 55.0858 1002.26 55.5494 1002.55 56.1L1034.26 101.66L1066.09 56.1C1066.84 55.1 1067.59 54.23 1068.96 54.23C1069.79 54.2598 1070.58 54.5946 1071.18 55.1703C1071.77 55.7461 1072.14 56.5222 1072.2 57.35C1072.11 58.2582 1071.76 59.1219 1071.2 59.84L1037.37 107.4V139.4C1037.39 139.841 1037.33 140.283 1037.18 140.698C1037.02 141.113 1036.79 141.493 1036.49 141.814C1036.18 142.135 1035.82 142.39 1035.41 142.565C1035 142.74 1034.57 142.83 1034.12 142.83C1033.68 142.83 1033.25 142.74 1032.84 142.565C1032.43 142.39 1032.07 142.135 1031.76 141.814C1031.46 141.493 1031.23 141.113 1031.07 140.698C1030.92 140.283 1030.86 139.841 1030.88 139.4L1030.89 107.53Z" fill="#FF6B00"/>
</g>
<defs>
<clipPath id="clip0_453_62">
<rect width="1072.2" height="193.96" fill="white"/>
</clipPath>
</defs>
</svg>
